<?xml version="1.0" encoding="UTF-8" standalone="no"?>
<!-- Created with Inkscape (http://www.inkscape.org/) -->

<svg
   xmlns:dc="http://purl.org/dc/elements/1.1/"
   xmlns:cc="http://creativecommons.org/ns#"
   xmlns:rdf="http://www.w3.org/1999/02/22-rdf-syntax-ns#"
   xmlns:svg="http://www.w3.org/2000/svg"
   xmlns="http://www.w3.org/2000/svg"
   xmlns:sodipodi="http://sodipodi.sourceforge.net/DTD/sodipodi-0.dtd"
   xmlns:inkscape="http://www.inkscape.org/namespaces/inkscape"
   width="1023.9999"
   height="223.9791"
   viewBox="0 0 1024 223.9791"
   id="svg2"
   version="1.1"
   inkscape:version="0.91 r13725"
   sodipodi:docname="sheepit-title.svg"
   inkscape:export-filename="/home/eyeballcode/EclipseWorkspace/sheepit-client/resources/sheepit-title.svg.png"
   inkscape:export-xdpi="90"
   inkscape:export-ydpi="90">
  <defs
     id="defs4" />
  <sodipodi:namedview
     id="base"
     pagecolor="#ffffff"
     bordercolor="#666666"
     borderopacity="1.0"
     inkscape:pageopacity="0.0"
     inkscape:pageshadow="2"
     inkscape:zoom="0.7"
     inkscape:cx="193.34018"
     inkscape:cy="118.42619"
     inkscape:document-units="px"
     inkscape:current-layer="layer1"
     showgrid="false"
     inkscape:window-width="1366"
     inkscape:window-height="714"
     inkscape:window-x="0"
     inkscape:window-y="25"
     inkscape:window-maximized="1"
     fit-margin-top="0"
     fit-margin-left="0"
     fit-margin-right="0"
     fit-margin-bottom="0"
     units="px" />
  <metadata
     id="metadata7">
    <rdf:RDF>
      <cc:Work
         rdf:about="">
        <dc:format>image/svg+xml</dc:format>
        <dc:type
           rdf:resource="http://purl.org/dc/dcmitype/StillImage" />
        <dc:title />
      </cc:Work>
    </rdf:RDF>
  </metadata>
  <g
     inkscape:label="Layer 1"
     inkscape:groupmode="layer"
     id="layer1"
     transform="translate(9.4207353e-6,-828.38311)">
    <g
       style="font-style:normal;font-variant:normal;font-weight:normal;font-stretch:normal;font-size:180px;line-height:125%;font-family:Roboto;-inkscape-font-specification:Roboto;letter-spacing:0px;word-spacing:0px;fill:#000000;fill-opacity:1;stroke:none;stroke-width:1px;stroke-linecap:butt;stroke-linejoin:miter;stroke-opacity:1"
       id="flowRoot4136" />
    <g
       transform="matrix(1.6635407,0,0,1.6635407,738.913,326.34231)"
       style="font-style:normal;font-variant:normal;font-weight:normal;font-stretch:normal;font-size:180px;line-height:125%;font-family:Roboto;-inkscape-font-specification:Roboto;letter-spacing:0px;word-spacing:0px;fill:#000000;fill-opacity:1;stroke:none;stroke-width:1px;stroke-linecap:butt;stroke-linejoin:miter;stroke-opacity:1"
       id="flowRoot4136-3">
      <path
         id="path3363"
         style="font-style:normal;font-variant:normal;font-weight:100;font-stretch:normal;font-family:'Roboto Condensed';-inkscape-font-specification:'Roboto Condensed, '"
         d="m 164.16016,313.99023 -36.38672,0 0,118.47657 -10.10742,0 0,-118.47657 -36.298833,0 0,-9.49218 82.792973,0 0,9.49218 z M 61.328125,432.4668 l -10.019531,0 0,-127.96875 10.019531,0 0,127.96875 z m -84.418545,-43.99636 0,45 -25.83984,0 0,-127.96875 43.59375,0 q 9.75586,0 17.40234,3.16406 7.73438,3.16406 13.09571,8.87695 5.36132,5.625 8.17382,13.44727 2.90039,7.73437 2.90039,16.875 0,9.3164 -2.90039,16.875 -2.8125,7.4707 -8.17382,12.74414 -5.36133,5.27344 -13.09571,8.17383 -7.73437,2.8125 -17.40234,2.8125 l -17.75391,0 z m 0,-21.53321 17.75391,0 q 4.04297,0 6.94336,-1.40625 2.98828,-1.40625 4.83398,-3.86718 1.9336,-2.54883 2.8125,-5.97657 0.87891,-3.51562 0.87891,-7.64648 0,-4.13086 -0.87891,-7.91016 -0.8789,-3.77929 -2.8125,-6.67968 -1.8457,-2.9004 -4.83398,-4.65821 -2.90039,-1.75781 -6.94336,-1.75781 l -17.75391,0 0,39.90234 z m -47.98828,11.16211 -40.25391,0 0,33.92578 47.63672,0 0,21.44532 -73.47656,0 0,-127.96875 73.30078,0 0,21.5332 -47.46094,0 0,30.23437 40.25391,0 0,20.83008 z m -88.24219,0 -40.2539,0 0,33.92578 47.63672,0 0,21.44532 -73.47657,0 0,-127.96875 73.30078,0 0,21.5332 -47.46093,0 0,30.23437 40.2539,0 0,20.83008 z m -86.74804,55.3711 -25.75196,0 0,-54.75586 -38.14453,0 0,54.75586 -25.83984,0 0,-127.96875 25.83984,0 0,51.76757 38.14453,0 0,-51.76757 25.75196,0 0,127.96875 z m -133.06641,-33.57422 q 0,-3.33985 -0.61523,-5.97656 -0.61524,-2.63672 -2.63672,-4.92188 -1.9336,-2.37305 -5.625,-4.57031 -3.60352,-2.19727 -9.66797,-4.65821 -7.20703,-2.7246 -13.79883,-6.24023 -6.50391,-3.51562 -11.51367,-8.26172 -4.92188,-4.83398 -7.91016,-11.07422 -2.90039,-6.32812 -2.90039,-14.67773 0,-7.99805 2.98828,-14.58985 2.98828,-6.67968 8.34961,-11.33789 5.44922,-4.6582 12.83203,-7.20703 7.47071,-2.63672 16.43555,-2.63672 9.22852,0 16.61133,2.98829 7.4707,2.90039 12.65625,8.17382 5.27344,5.18555 8.08594,12.48047 2.8125,7.20703 2.8125,15.90821 l -25.75196,0 q 0,-4.04297 -0.8789,-7.38282 -0.79102,-3.42773 -2.63672,-5.80078 -1.75781,-2.46094 -4.57031,-3.7793 -2.8125,-1.40625 -6.76758,-1.40625 -3.69141,0 -6.41602,1.14258 -2.63672,1.14258 -4.39453,3.16407 -1.75781,1.93359 -2.63672,4.6582 -0.8789,2.72461 -0.8789,5.80078 0,3.16406 1.31836,5.71289 1.40625,2.54883 3.86718,4.74609 2.54883,2.19727 6.06446,4.13086 3.60351,1.9336 7.91015,3.7793 8.96485,3.25195 15.64453,7.20703 6.67969,3.95508 11.16211,8.96485 4.48242,5.00976 6.67969,11.33789 2.19727,6.24023 2.19727,14.15039 0,8.4375 -2.8125,15.02929 -2.72461,6.5918 -7.91016,11.16211 -5.09766,4.48242 -12.39258,6.94336 -7.29492,2.37305 -16.43555,2.37305 -8.26171,0 -16.25976,-2.46094 -7.91016,-2.54883 -14.15039,-7.73437 -6.24024,-5.18555 -10.10742,-13.09571 -3.7793,-7.91015 -3.7793,-18.80859 l 25.92773,0 q 0,5.80078 1.14258,9.84375 1.14258,4.04297 3.42774,6.5918 2.37304,2.46093 5.80078,3.60351 3.42773,1.05469 7.99804,1.05469 3.69141,0 6.24024,-1.05469 2.63672,-1.14258 4.21875,-2.98828 1.66992,-1.93359 2.37305,-4.57031 0.70312,-2.63672 0.70312,-5.71289 z"
         inkscape:connector-curvature="0" />
    </g>
  </g>
</svg>
